<?xml version="1.0" encoding="iso-8859-1"?>
<!-- Generator: Adobe Illustrator 19.0.0, SVG Export Plug-In . SVG Version: 6.00 Build 0)  -->
<svg version="1.1" id="Layer_1" xmlns="http://www.w3.org/2000/svg" xmlns:xlink="http://www.w3.org/1999/xlink" x="0px" y="0px"
	 viewBox="0 0 512 512" style="enable-background:new 0 0 512 512;" xml:space="preserve">
<g>
	<g>
		<path d="M505.303,313.686c-13.974-23.829-31.24-45.466-51.371-64.408l5.411-10.134c1.751-3.281,1.128-7.325-1.534-9.924
			c-29.622-28.941-65.754-51.522-104.561-65.407l3.655-12.34c1.266-4.275-1.044-8.793-5.252-10.27
			c-30.67-10.764-62.853-16.223-95.651-16.223s-64.981,5.459-95.651,16.223c-4.207,1.477-6.518,5.994-5.25,10.27l3.655,12.34
			c-38.816,13.888-74.944,36.468-104.563,65.407c-2.66,2.599-3.285,6.644-1.534,9.924l5.411,10.134
			c-20.13,18.941-37.397,40.579-51.372,64.408c-10.153,17.313-8.664,38.754,3.796,54.627c8.279,10.547,20.184,17.1,33.521,18.452
			c1.682,0.171,3.355,0.255,5.02,0.255c11.417,0,22.317-3.977,31.124-11.444c12.466-10.568,25.952-20.06,40.079-28.212
			c14.55-8.385,29.908-15.437,45.651-20.959c28.887-10.138,59.204-15.278,90.111-15.278s61.224,5.14,90.112,15.278
			c15.74,5.521,31.099,12.573,45.646,20.957c14.132,8.154,27.618,17.646,40.083,28.214c10.091,8.555,22.917,12.532,36.143,11.189
			c13.338-1.352,25.245-7.905,33.523-18.452C513.966,352.44,515.456,330.998,505.303,313.686z M69.339,362.812
			c-6.592,5.588-14.987,8.178-23.636,7.306c-8.773-0.89-16.604-5.2-22.049-12.137c-8.059-10.265-9.073-24.665-2.524-35.831
			c12.4-21.145,27.551-40.464,45.12-57.553l38.679,72.431C92.456,344.7,80.508,353.343,69.339,362.812z M160.349,310.615
			c-14.016,4.917-27.735,10.989-40.91,18.065l-49.03-91.813c26.794-24.981,58.818-44.576,93.105-56.983l35.585,120.129
			C185.968,302.637,173.027,306.167,160.349,310.615z M256,294.393c-13.556,0-27.004,0.947-40.286,2.802l-42.279-142.73
			c26.601-8.466,54.338-12.755,82.565-12.755c28.226,0,55.964,4.289,82.566,12.755l-42.281,142.73
			C283.003,295.341,269.556,294.393,256,294.393z M351.651,310.616c-12.678-4.449-25.618-7.979-38.75-10.603l35.585-120.128
			c34.278,12.4,66.307,31.998,93.105,56.982l-49.03,91.813C379.385,321.604,365.665,315.533,351.651,310.616z M488.345,357.981
			c-5.446,6.937-13.276,11.247-22.05,12.137c-8.654,0.869-17.045-1.719-23.635-7.306c-11.168-9.467-23.114-18.109-35.589-25.785
			l38.679-72.43c17.568,17.089,32.718,36.407,45.118,57.552C497.418,333.316,496.404,347.716,488.345,357.981z"/>
	</g>
</g>
<g>
</g>
<g>
</g>
<g>
</g>
<g>
</g>
<g>
</g>
<g>
</g>
<g>
</g>
<g>
</g>
<g>
</g>
<g>
</g>
<g>
</g>
<g>
</g>
<g>
</g>
<g>
</g>
<g>
</g>
</svg>
